<?xml version="1.0" encoding="UTF-8" standalone="no"?>
<!-- Created with Inkscape (http://www.inkscape.org/) -->

<svg
   version="1.1"
   id="svg1"
   width="421.0592"
   height="421.0592"
   viewBox="0 0 421.0592 421.0592"
   sodipodi:docname="c24.svg"
   inkscape:version="1.4.2 (ebf0e940d0, 2025-05-08)"
   xmlns:inkscape="http://www.inkscape.org/namespaces/inkscape"
   xmlns:sodipodi="http://sodipodi.sourceforge.net/DTD/sodipodi-0.dtd"
   xmlns="http://www.w3.org/2000/svg"
   xmlns:svg="http://www.w3.org/2000/svg">
  <defs
     id="defs1" />
  <sodipodi:namedview
     id="namedview1"
     pagecolor="#505050"
     bordercolor="#eeeeee"
     borderopacity="1"
     inkscape:showpageshadow="0"
     inkscape:pageopacity="0"
     inkscape:pagecheckerboard="0"
     inkscape:deskcolor="#505050"
     showguides="true"
     inkscape:zoom="1.4142136"
     inkscape:cx="324.20845"
     inkscape:cy="187.73685"
     inkscape:window-width="2560"
     inkscape:window-height="1359"
     inkscape:window-x="0"
     inkscape:window-y="0"
     inkscape:window-maximized="1"
     inkscape:current-layer="svg1" />
  <rect
     style="display:inline;fill:#485ad2;fill-opacity:1;stroke:#000000;stroke-width:1.0592;stroke-opacity:0"
     id="rect1"
     width="420"
     height="420"
     x="0.52960002"
     y="0.52960002"
     inkscape:label="rect1" />
  <path
     id="path1"
     style="display:inline;opacity:1;fill:#ffffff;fill-opacity:1"
     d="M 253.71484,73.23242 C 230.51762,73.044038 205.19731,78.258386 179.70703,89.527342 99.136391,125.14669 47.561532,206.50332 64.527342,271.2168 c 10.071629,38.41668 44.384058,65.06916 88.138678,68.46289 2.464,0.19112 5.05576,0.39382 5.75976,0.44922 20.0832,1.57897 47.81867,-3.22602 71.1875,-12.33203 28.36908,-11.05448 43.79589,-23.06427 48.60857,-26.21675 2.12796,-1.39389 2.17281,-4.20421 0.93206,-5.76563 -1.57354,-1.98023 -4.51694,-1.7038 -6.0326,-0.75053 -16.16285,10.16559 -38.20415,22.62314 -71.01584,27.21536 -4.29104,0.60056 -21.97107,0.90231 -26.08008,0.44531 -23.10692,-2.56992 -43.65276,-12.98845 -55.83008,-28.30859 -31.430255,-39.54209 -17.23781,-104.91161 33.53125,-154.44339 50.48669,-49.256303 122.16483,-65.21089 164.75586,-36.67188 7.90977,5.3001 13.11365,10.75905 17.8932,16.74952 1.00306,1.25718 3.54416,2.0479 5.25668,1.00591 1.88678,-1.14802 1.73503,-4.16258 1.0313,-5.22385 C 325.8134,90.421351 295.14228,73.568847 253.71484,73.23242 Z"
     sodipodi:nodetypes="sssscsssssssssssss" />
  <path
     d="m 147.58093,285.89783 q -6.10202,0 -8.97356,-5.62343 -4.42696,-8.37533 4.5466,-18.42571 l 63.05421,-71.19024 q 3.35013,-3.82872 6.22167,-9.45215 7.17885,-14.35769 7.17885,-25.24561 0,-11.12722 -9.5718,-11.24686 -4.90555,0 -9.5718,5.74307 -6.22166,7.89674 -6.46096,19.86148 -0.11965,5.0252 -6.46096,5.98238 l -21.53654,3.35012 q -0.83754,0.11965 -1.79472,0.11965 -3.70907,-0.35894 -3.70907,-6.34131 0,-3.35013 0.47859,-6.93956 2.5126,-18.78465 16.87029,-31.58693 15.43453,-13.8791 36.73177,-13.8791 16.15241,0 26.2028,9.3325 10.64862,9.93074 10.64862,27.04033 0,25.36526 -20.10077,46.66251 l -50.49123,53.48241 44.03026,-1.79471 q 7.0592,-0.2393 5.50379,7.65744 l -3.82872,15.79346 q -0.35894,1.43577 -1.31612,2.87154 -2.75189,3.82872 -6.81991,3.82872 z M 323.3958,250.72147 q 0,0 -10.88792,0 l -7.53779,29.91187 q -1.31612,5.02519 -7.17885,5.26449 h -20.34007 q -1.43577,0 -2.75189,-0.71789 -3.11083,-2.034 -2.03401,-6.70026 l 6.93956,-27.75821 h -46.42322 q -10.28968,0 -12.56298,-7.53779 -2.03401,-7.41814 4.42696,-16.87029 l 67.48116,-100.02527 q 1.07683,-1.67507 2.5126,-2.2733 1.79471,-0.83754 4.66625,-0.83754 h 23.4509 q 2.87154,0 4.30731,1.67507 2.15365,2.87154 -1.43577,7.17885 l -65.20786,92.60713 25.36526,-0.11965 6.8199,-26.92068 q 1.31612,-5.02519 7.17885,-5.26449 h 20.34007 q 1.43577,0 2.75189,0.71789 3.11083,2.03401 2.03401,6.70026 l -6.22167,24.64737 h 11.72545 q 7.0592,-0.23929 5.50378,7.17885 l -4.7859,12.20404 q -0.11964,0.59824 -0.35894,1.19648 -2.2733,5.74307 -7.77708,5.74307 z"
     id="text19"
     style="font-weight:bold;font-size:245.038px;font-family:Allan;-inkscape-font-specification:'Allan Bold';letter-spacing:-18.4926px;word-spacing:-0.0127624px;fill:#ffffff;stroke:#000000;stroke-width:1.27624;stroke-opacity:0"
     aria-label="24" />
</svg>
